<svg xmlns="http://www.w3.org/2000/svg" viewBox="0 0 1024 1024" role="img" aria-label="macOS Updates logo">
  <defs>
    <linearGradient id="shell" x1="160" y1="96" x2="864" y2="928" gradientUnits="userSpaceOnUse">
      <stop offset="0" stop-color="#17202b"/>
      <stop offset="0.5" stop-color="#0f141b"/>
      <stop offset="1" stop-color="#071017"/>
    </linearGradient>
    <linearGradient id="accent" x1="256" y1="214" x2="780" y2="826" gradientUnits="userSpaceOnUse">
      <stop offset="0" stop-color="#45d18c"/>
      <stop offset="1" stop-color="#18a66a"/>
    </linearGradient>
    <linearGradient id="blue" x1="240" y1="180" x2="800" y2="820" gradientUnits="userSpaceOnUse">
      <stop offset="0" stop-color="#4aa3ff"/>
      <stop offset="1" stop-color="#3278b8"/>
    </linearGradient>
    <filter id="soft" x="-20%" y="-20%" width="140%" height="140%">
      <feDropShadow dx="0" dy="28" stdDeviation="32" flood-color="#03120d" flood-opacity="0.45"/>
    </filter>
  </defs>
  <rect x="96" y="96" width="832" height="832" rx="216" fill="url(#shell)" filter="url(#soft)"/>
  <rect x="150" y="150" width="724" height="724" rx="174" fill="none" stroke="#ffffff" stroke-opacity="0.08" stroke-width="2"/>
  <path d="M512 218c137 0 252 93 286 220" fill="none" stroke="url(#blue)" stroke-width="64" stroke-linecap="round"/>
  <path d="M790 356l36 120-122-28" fill="none" stroke="url(#blue)" stroke-width="64" stroke-linecap="round" stroke-linejoin="round"/>
  <path d="M512 806c-137 0-252-93-286-220" fill="none" stroke="url(#accent)" stroke-width="64" stroke-linecap="round"/>
  <path d="M234 668l-36-120 122 28" fill="none" stroke="url(#accent)" stroke-width="64" stroke-linecap="round" stroke-linejoin="round"/>
  <rect x="280" y="330" width="464" height="364" rx="42" fill="#0a0f15" stroke="#ffffff" stroke-opacity="0.1" stroke-width="3"/>
  <path d="M352 444l78 68-78 68" fill="none" stroke="#45d18c" stroke-width="42" stroke-linecap="round" stroke-linejoin="round"/>
  <path d="M486 586h166" fill="none" stroke="#d8fff0" stroke-width="42" stroke-linecap="round"/>
  <circle cx="352" cy="388" r="14" fill="#ff5f57"/>
  <circle cx="398" cy="388" r="14" fill="#ffbd2e"/>
  <circle cx="444" cy="388" r="14" fill="#28c840"/>
</svg>
