<svg xmlns="http://www.w3.org/2000/svg" viewBox="0 0 1320 360" role="img" aria-label="macOS Updates">
  <defs>
    <linearGradient id="markShell" x1="40" y1="24" x2="328" y2="336" gradientUnits="userSpaceOnUse">
      <stop offset="0" stop-color="#17202b"/>
      <stop offset="1" stop-color="#071017"/>
    </linearGradient>
    <linearGradient id="markAccent" x1="88" y1="70" x2="300" y2="300" gradientUnits="userSpaceOnUse">
      <stop offset="0" stop-color="#7BC4FF"/>
      <stop offset="1" stop-color="#3278B8"/>
    </linearGradient>
    <linearGradient id="markBlue" x1="80" y1="58" x2="300" y2="302" gradientUnits="userSpaceOnUse">
      <stop offset="0" stop-color="#4aa3ff"/>
      <stop offset="1" stop-color="#3278b8"/>
    </linearGradient>
  </defs>
  <rect x="30" y="30" width="300" height="300" rx="76" fill="url(#markShell)"/>
  <path d="M180 78c49 0 92 30 110 73" fill="none" stroke="url(#markBlue)" stroke-width="24" stroke-linecap="round"/>
  <path d="M288 118l14 44-46-10" fill="none" stroke="url(#markBlue)" stroke-width="24" stroke-linecap="round" stroke-linejoin="round"/>
  <path d="M180 282c-49 0-92-30-110-73" fill="none" stroke="url(#markAccent)" stroke-width="24" stroke-linecap="round"/>
  <path d="M72 242l-14-44 46 10" fill="none" stroke="url(#markAccent)" stroke-width="24" stroke-linecap="round" stroke-linejoin="round"/>
  <rect x="104" y="124" width="152" height="120" rx="16" fill="#0a0f15" stroke="#ffffff" stroke-opacity="0.1"/>
  <path d="M128 162l25 20-25 20" fill="none" stroke="#7BC4FF" stroke-width="14" stroke-linecap="round" stroke-linejoin="round"/>
  <path d="M174 206h56" fill="none" stroke="#D9ECFF" stroke-width="14" stroke-linecap="round"/>
  <text x="380" y="164" fill="#0F1115" font-family="Inter Tight, Inter, Arial, sans-serif" font-size="96" font-weight="800" letter-spacing="0">macOS Updates</text>
  <text x="384" y="236" fill="#3278B8" font-family="JetBrains Mono, monospace" font-size="28" font-weight="600" letter-spacing="0">UPDATE ORBIT FOR APPLE SILICON</text>
</svg>
